<svg xmlns="http://www.w3.org/2000/svg" xmlns:xlink="http://www.w3.org/1999/xlink" contentStyleType="text/css" height="1748px" preserveAspectRatio="none" style="width:978px;height:1748px;background:#FFFFFF;" version="1.1" viewBox="0 0 978 1748" width="978px" zoomAndPan="magnify"><defs/><g><!--cluster MyClub--><g id="cluster_MyClub"><path d="M8.5,6 L66.5,6 A3.75,3.75 0 0 1 69,8.5 L76,28.2969 L968.5,28.2969 A2.5,2.5 0 0 1 971,30.7969 L971,1738.5 A2.5,2.5 0 0 1 968.5,1741 L8.5,1741 A2.5,2.5 0 0 1 6,1738.5 L6,8.5 A2.5,2.5 0 0 1 8.5,6 " fill="none" style="stroke:#000000;stroke-width:1.5;"/><line style="stroke:#000000;stroke-width:1.5;" x1="6" x2="76" y1="28.2969" y2="28.2969"/><text fill="#000000" font-family="sans-serif" font-size="14" font-weight="bold" lengthAdjust="spacing" textLength="57" x="10" y="20.9951">MyClub</text></g><!--cluster Views--><g id="cluster_Views"><path d="M32.5,49 L81.5,49 A3.75,3.75 0 0 1 84,51.5 L91,71.2969 L944.5,71.2969 A2.5,2.5 0 0 1 947,73.7969 L947,1714.5 A2.5,2.5 0 0 1 944.5,1717 L32.5,1717 A2.5,2.5 0 0 1 30,1714.5 L30,51.5 A2.5,2.5 0 0 1 32.5,49 " fill="none" style="stroke:#000000;stroke-width:1.5;"/><line style="stroke:#000000;stroke-width:1.5;" x1="30" x2="91" y1="71.2969" y2="71.2969"/><text fill="#000000" font-family="sans-serif" font-size="14" font-weight="bold" lengthAdjust="spacing" textLength="48" x="34" y="63.9951">Views</text></g><!--cluster User--><g id="cluster_User"><path d="M56.5,92 L94.5,92 A3.75,3.75 0 0 1 97,94.5 L104,114.2969 L920.5,114.2969 A2.5,2.5 0 0 1 923,116.7969 L923,1690.5 A2.5,2.5 0 0 1 920.5,1693 L56.5,1693 A2.5,2.5 0 0 1 54,1690.5 L54,94.5 A2.5,2.5 0 0 1 56.5,92 " fill="none" style="stroke:#000000;stroke-width:1.5;"/><line style="stroke:#000000;stroke-width:1.5;" x1="54" x2="104" y1="114.2969" y2="114.2969"/><text fill="#000000" font-family="sans-serif" font-size="14" font-weight="bold" lengthAdjust="spacing" textLength="37" x="58" y="106.9951">User</text></g><!--class CreateUserActivity--><g id="elem_CreateUserActivity"><rect codeLine="6" fill="#F1F1F1" height="585.7969" id="CreateUserActivity" rx="2.5" ry="2.5" style="stroke:#181818;stroke-width:0.5;" width="331" x="70" y="1091.1"/><ellipse cx="168.75" cy="1107.1" fill="#ADD1B2" rx="11" ry="11" style="stroke:#181818;stroke-width:1.0;"/><path d="M171.7188,1112.7406 Q171.1406,1113.0375 170.5,1113.1781 Q169.8594,1113.3344 169.1563,1113.3344 Q166.6563,1113.3344 165.3281,1111.6938 Q164.0156,1110.0375 164.0156,1106.9125 Q164.0156,1103.7875 165.3281,1102.1313 Q166.6563,1100.475 169.1563,1100.475 Q169.8594,1100.475 170.5,1100.6313 Q171.1563,1100.7875 171.7188,1101.0844 L171.7188,1103.8031 Q171.0938,1103.225 170.5,1102.9594 Q169.9063,1102.6781 169.2813,1102.6781 Q167.9375,1102.6781 167.25,1103.7563 Q166.5625,1104.8188 166.5625,1106.9125 Q166.5625,1109.0063 167.25,1110.0844 Q167.9375,1111.1469 169.2813,1111.1469 Q169.9063,1111.1469 170.5,1110.8813 Q171.0938,1110.6 171.7188,1110.0219 L171.7188,1112.7406 Z " fill="#000000"/><text fill="#000000" font-family="sans-serif" font-size="14" lengthAdjust="spacing" textLength="125" x="189.25" y="1111.9467">CreateUserActivity</text><line style="stroke:#181818;stroke-width:0.5;" x1="71" x2="400" y1="1123.1" y2="1123.1"/><rect fill="none" height="6" style="stroke:#C82930;stroke-width:1.0;" width="6" x="78" y="1133.7484"/><text fill="#000000" font-family="sans-serif" font-size="14" lengthAdjust="spacing" textLength="136" x="90" y="1140.0951">userName: EditText</text><rect fill="none" height="6" style="stroke:#C82930;stroke-width:1.0;" width="6" x="78" y="1150.0453"/><text fill="#000000" font-family="sans-serif" font-size="14" lengthAdjust="spacing" textLength="152" x="90" y="1156.392">firstSurname: EditText</text><rect fill="none" height="6" style="stroke:#C82930;stroke-width:1.0;" width="6" x="78" y="1166.3422"/><text fill="#000000" font-family="sans-serif" font-size="14" lengthAdjust="spacing" textLength="179" x="90" y="1172.6889">secondSurname: EditText</text><rect fill="none" height="6" style="stroke:#C82930;stroke-width:1.0;" width="6" x="78" y="1182.6391"/><text fill="#000000" font-family="sans-serif" font-size="14" lengthAdjust="spacing" textLength="125" x="90" y="1188.9857">category: EditText</text><rect fill="none" height="6" style="stroke:#C82930;stroke-width:1.0;" width="6" x="78" y="1198.9359"/><text fill="#000000" font-family="sans-serif" font-size="14" lengthAdjust="spacing" textLength="165" x="90" y="1205.2826">phoneNumber: EditText</text><rect fill="none" height="6" style="stroke:#C82930;stroke-width:1.0;" width="6" x="78" y="1215.2328"/><text fill="#000000" font-family="sans-serif" font-size="14" lengthAdjust="spacing" textLength="101" x="90" y="1221.5795">email: EditText</text><rect fill="none" height="6" style="stroke:#C82930;stroke-width:1.0;" width="6" x="78" y="1231.5297"/><text fill="#000000" font-family="sans-serif" font-size="14" lengthAdjust="spacing" textLength="111" x="90" y="1237.8764">weight: EditText</text><rect fill="none" height="6" style="stroke:#C82930;stroke-width:1.0;" width="6" x="78" y="1247.8266"/><text fill="#000000" font-family="sans-serif" font-size="14" lengthAdjust="spacing" textLength="109" x="90" y="1254.1732">height: EditText</text><rect fill="none" height="6" style="stroke:#C82930;stroke-width:1.0;" width="6" x="78" y="1264.1234"/><text fill="#000000" font-family="sans-serif" font-size="14" lengthAdjust="spacing" textLength="136" x="90" y="1270.4701">dayOfBirth: EditText</text><rect fill="none" height="6" style="stroke:#C82930;stroke-width:1.0;" width="6" x="78" y="1280.4203"/><text fill="#000000" font-family="sans-serif" font-size="14" lengthAdjust="spacing" textLength="132" x="90" y="1286.767">password: EditText</text><rect fill="none" height="6" style="stroke:#C82930;stroke-width:1.0;" width="6" x="78" y="1296.7172"/><text fill="#000000" font-family="sans-serif" font-size="14" lengthAdjust="spacing" textLength="136" x="90" y="1303.0639">txtWeight: TextView</text><rect fill="none" height="6" style="stroke:#C82930;stroke-width:1.0;" width="6" x="78" y="1313.0141"/><text fill="#000000" font-family="sans-serif" font-size="14" lengthAdjust="spacing" textLength="133" x="90" y="1319.3607">txtHeight: TextView</text><rect fill="none" height="6" style="stroke:#C82930;stroke-width:1.0;" width="6" x="78" y="1329.3109"/><text fill="#000000" font-family="sans-serif" font-size="14" lengthAdjust="spacing" textLength="161" x="90" y="1335.6576">txtDayOfBirth: TextView</text><rect fill="none" height="6" style="stroke:#C82930;stroke-width:1.0;" width="6" x="78" y="1345.6078"/><text fill="#000000" font-family="sans-serif" font-size="14" lengthAdjust="spacing" textLength="150" x="90" y="1351.9545">txtCategory: TextView</text><rect fill="none" height="6" style="stroke:#C82930;stroke-width:1.0;" width="6" x="78" y="1361.9047"/><text fill="#000000" font-family="sans-serif" font-size="14" lengthAdjust="spacing" textLength="176" x="90" y="1368.2514">createUserTitle: TextView</text><rect fill="none" height="6" style="stroke:#C82930;stroke-width:1.0;" width="6" x="78" y="1378.2016"/><text fill="#000000" font-family="sans-serif" font-size="14" lengthAdjust="spacing" textLength="174" x="90" y="1384.5482">btnSaveChanges: Button</text><rect fill="none" height="6" style="stroke:#C82930;stroke-width:1.0;" width="6" x="78" y="1394.4984"/><text fill="#000000" font-family="sans-serif" font-size="14" lengthAdjust="spacing" textLength="111" x="90" y="1400.8451">btnStart: Button</text><rect fill="none" height="6" style="stroke:#C82930;stroke-width:1.0;" width="6" x="78" y="1410.7953"/><text fill="#000000" font-family="sans-serif" font-size="14" lengthAdjust="spacing" textLength="113" x="90" y="1417.142">btnBack: Button</text><rect fill="none" height="6" style="stroke:#C82930;stroke-width:1.0;" width="6" x="78" y="1427.0922"/><text fill="#000000" font-family="sans-serif" font-size="14" lengthAdjust="spacing" textLength="256" x="90" y="1433.4389">checkBox_show_passwor: CheckBox</text><rect fill="none" height="6" style="stroke:#C82930;stroke-width:1.0;" width="6" x="78" y="1443.3891"/><text fill="#000000" font-family="sans-serif" font-size="14" lengthAdjust="spacing" textLength="102" x="90" y="1449.7357">userRol: String</text><rect fill="none" height="6" style="stroke:#C82930;stroke-width:1.0;" width="6" x="78" y="1459.6859"/><text fill="#000000" font-family="sans-serif" font-size="14" lengthAdjust="spacing" textLength="123" x="90" y="1466.0326">userRolApi: String</text><rect fill="none" height="6" style="stroke:#C82930;stroke-width:1.0;" width="6" x="78" y="1475.9828"/><text fill="#000000" font-family="sans-serif" font-size="14" lengthAdjust="spacing" textLength="89" x="90" y="1482.3295">intent: Intent</text><rect fill="none" height="6" style="stroke:#C82930;stroke-width:1.0;" width="6" x="78" y="1492.2797"/><text fill="#000000" font-family="sans-serif" font-size="14" lengthAdjust="spacing" textLength="217" x="90" y="1498.6264">dialogWindows: DialogWindows</text><rect fill="none" height="6" style="stroke:#C82930;stroke-width:1.0;" width="6" x="78" y="1508.5766"/><text fill="#000000" font-family="sans-serif" font-size="14" lengthAdjust="spacing" textLength="203" x="90" y="1514.9232">userController: UserControler</text><rect fill="none" height="6" style="stroke:#C82930;stroke-width:1.0;" width="6" x="78" y="1524.8734"/><text fill="#000000" font-family="sans-serif" font-size="14" lengthAdjust="spacing" textLength="157" x="90" y="1531.2201">sdf: SimpleDateFormat</text><line style="stroke:#181818;stroke-width:0.5;" x1="71" x2="400" y1="1538.5219" y2="1538.5219"/><ellipse cx="81" cy="1552.1703" fill="#84BE84" rx="3" ry="3" style="stroke:#038048;stroke-width:1.0;"/><text fill="#000000" font-family="sans-serif" font-size="14" lengthAdjust="spacing" textLength="305" x="90" y="1555.517">onCreate(savedInstanceState: Bundle): void</text><ellipse cx="81" cy="1568.4672" fill="#84BE84" rx="3" ry="3" style="stroke:#038048;stroke-width:1.0;"/><text fill="#000000" font-family="sans-serif" font-size="14" lengthAdjust="spacing" textLength="141" x="90" y="1571.8139">initializeViews(): void</text><ellipse cx="81" cy="1584.7641" fill="#84BE84" rx="3" ry="3" style="stroke:#038048;stroke-width:1.0;"/><text fill="#000000" font-family="sans-serif" font-size="14" lengthAdjust="spacing" textLength="272" x="90" y="1588.1107">changeHeader(userRolApi: String): void</text><ellipse cx="81" cy="1601.0609" fill="#84BE84" rx="3" ry="3" style="stroke:#038048;stroke-width:1.0;"/><text fill="#000000" font-family="sans-serif" font-size="14" lengthAdjust="spacing" textLength="106" x="90" y="1604.4076">listeners(): void</text><ellipse cx="81" cy="1617.3578" fill="#84BE84" rx="3" ry="3" style="stroke:#038048;stroke-width:1.0;"/><text fill="#000000" font-family="sans-serif" font-size="14" lengthAdjust="spacing" textLength="129" x="90" y="1620.7045">setUser(): boolean</text><ellipse cx="81" cy="1633.6547" fill="#84BE84" rx="3" ry="3" style="stroke:#038048;stroke-width:1.0;"/><text fill="#000000" font-family="sans-serif" font-size="14" lengthAdjust="spacing" textLength="240" x="90" y="1637.0014">hideFields(userRolApi: String): void</text><ellipse cx="81" cy="1649.9516" fill="#84BE84" rx="3" ry="3" style="stroke:#038048;stroke-width:1.0;"/><text fill="#000000" font-family="sans-serif" font-size="14" lengthAdjust="spacing" textLength="145" x="90" y="1653.2982">onClick(v: View): void</text><ellipse cx="81" cy="1666.2484" fill="#84BE84" rx="3" ry="3" style="stroke:#038048;stroke-width:1.0;"/><text fill="#000000" font-family="sans-serif" font-size="14" lengthAdjust="spacing" textLength="106" x="90" y="1669.5951">getUser(): User</text></g><g id="elem_GMN6"><path d="M497.5,1318.47 L497.5,1380 L401.49,1384 L497.5,1388 L497.5,1449.5325 A0,0 0 0 0 497.5,1449.5325 L870.5,1449.5325 A0,0 0 0 0 870.5,1449.5325 L870.5,1328.47 L860.5,1318.47 L497.5,1318.47 A0,0 0 0 0 497.5,1318.47 " fill="#FEFFDD" style="stroke:#181818;stroke-width:0.5;"/><path d="M860.5,1318.47 L860.5,1328.47 L870.5,1328.47 L860.5,1318.47 " fill="#FEFFDD" style="stroke:#181818;stroke-width:0.5;"/><text fill="#000000" font-family="sans-serif" font-size="13" lengthAdjust="spacing" textLength="292" x="503.5" y="1335.5369">Esta actividad permite a los usuarios crear un</text><text fill="#000000" font-family="sans-serif" font-size="13" lengthAdjust="spacing" textLength="269" x="503.5" y="1350.6697">nuevo perfil en la aplicaci&#243;n. Dependiendo</text><text fill="#000000" font-family="sans-serif" font-size="13" lengthAdjust="spacing" textLength="280" x="503.5" y="1365.8025">del tipo de usuario, se mostrar&#225;n diferentes</text><text fill="#000000" font-family="sans-serif" font-size="13" lengthAdjust="spacing" textLength="319" x="503.5" y="1380.9353">campos en el formulario. Se pueden crear perfiles</text><text fill="#000000" font-family="sans-serif" font-size="13" lengthAdjust="spacing" textLength="348" x="503.5" y="1396.0681">de directivos, entrenadores y atletas. El usuario puede</text><text fill="#000000" font-family="sans-serif" font-size="13" lengthAdjust="spacing" textLength="352" x="503.5" y="1411.201">ingresar informaci&#243;n personal como nombre, apellidos,</text><text fill="#000000" font-family="sans-serif" font-size="13" lengthAdjust="spacing" textLength="337" x="503.5" y="1426.3338">n&#250;mero de tel&#233;fono, correo electr&#243;nico, peso, altura,</text><text fill="#000000" font-family="sans-serif" font-size="13" lengthAdjust="spacing" textLength="221" x="503.5" y="1441.4666">fecha de nacimiento y contrase&#241;a.</text></g><!--class EditUserActivity--><g id="elem_EditUserActivity"><rect codeLine="55" fill="#F1F1F1" height="634.6875" id="EditUserActivity" rx="2.5" ry="2.5" style="stroke:#181818;stroke-width:0.5;" width="291" x="90" y="421.66"/><ellipse cx="178.75" cy="437.66" fill="#ADD1B2" rx="11" ry="11" style="stroke:#181818;stroke-width:1.0;"/><path d="M181.7188,443.3006 Q181.1406,443.5975 180.5,443.7381 Q179.8594,443.8944 179.1563,443.8944 Q176.6563,443.8944 175.3281,442.2538 Q174.0156,440.5975 174.0156,437.4725 Q174.0156,434.3475 175.3281,432.6913 Q176.6563,431.035 179.1563,431.035 Q179.8594,431.035 180.5,431.1913 Q181.1563,431.3475 181.7188,431.6444 L181.7188,434.3631 Q181.0938,433.785 180.5,433.5194 Q179.9063,433.2381 179.2813,433.2381 Q177.9375,433.2381 177.25,434.3163 Q176.5625,435.3788 176.5625,437.4725 Q176.5625,439.5663 177.25,440.6444 Q177.9375,441.7069 179.2813,441.7069 Q179.9063,441.7069 180.5,441.4413 Q181.0938,441.16 181.7188,440.5819 L181.7188,443.3006 Z " fill="#000000"/><text fill="#000000" font-family="sans-serif" font-size="14" lengthAdjust="spacing" textLength="105" x="199.25" y="442.5067">EditUserActivity</text><line style="stroke:#181818;stroke-width:0.5;" x1="91" x2="380" y1="453.66" y2="453.66"/><rect fill="none" height="6" style="stroke:#C82930;stroke-width:1.0;" width="6" x="98" y="464.3084"/><text fill="#000000" font-family="sans-serif" font-size="14" lengthAdjust="spacing" textLength="136" x="110" y="470.6551">userName: EditText</text><rect fill="none" height="6" style="stroke:#C82930;stroke-width:1.0;" width="6" x="98" y="480.6053"/><text fill="#000000" font-family="sans-serif" font-size="14" lengthAdjust="spacing" textLength="152" x="110" y="486.952">firstSurname: EditText</text><rect fill="none" height="6" style="stroke:#C82930;stroke-width:1.0;" width="6" x="98" y="496.9022"/><text fill="#000000" font-family="sans-serif" font-size="14" lengthAdjust="spacing" textLength="179" x="110" y="503.2489">secondSurname: EditText</text><rect fill="none" height="6" style="stroke:#C82930;stroke-width:1.0;" width="6" x="98" y="513.1991"/><text fill="#000000" font-family="sans-serif" font-size="14" lengthAdjust="spacing" textLength="125" x="110" y="519.5457">category: EditText</text><rect fill="none" height="6" style="stroke:#C82930;stroke-width:1.0;" width="6" x="98" y="529.4959"/><text fill="#000000" font-family="sans-serif" font-size="14" lengthAdjust="spacing" textLength="165" x="110" y="535.8426">phoneNumber: EditText</text><rect fill="none" height="6" style="stroke:#C82930;stroke-width:1.0;" width="6" x="98" y="545.7928"/><text fill="#000000" font-family="sans-serif" font-size="14" lengthAdjust="spacing" textLength="101" x="110" y="552.1395">email: EditText</text><rect fill="none" height="6" style="stroke:#C82930;stroke-width:1.0;" width="6" x="98" y="562.0897"/><text fill="#000000" font-family="sans-serif" font-size="14" lengthAdjust="spacing" textLength="111" x="110" y="568.4364">weight: EditText</text><rect fill="none" height="6" style="stroke:#C82930;stroke-width:1.0;" width="6" x="98" y="578.3866"/><text fill="#000000" font-family="sans-serif" font-size="14" lengthAdjust="spacing" textLength="109" x="110" y="584.7332">height: EditText</text><rect fill="none" height="6" style="stroke:#C82930;stroke-width:1.0;" width="6" x="98" y="594.6834"/><text fill="#000000" font-family="sans-serif" font-size="14" lengthAdjust="spacing" textLength="136" x="110" y="601.0301">dayOfBirth: EditText</text><rect fill="none" height="6" style="stroke:#C82930;stroke-width:1.0;" width="6" x="98" y="610.9803"/><text fill="#000000" font-family="sans-serif" font-size="14" lengthAdjust="spacing" textLength="132" x="110" y="617.327">password: EditText</text><rect fill="none" height="6" style="stroke:#C82930;stroke-width:1.0;" width="6" x="98" y="627.2772"/><text fill="#000000" font-family="sans-serif" font-size="14" lengthAdjust="spacing" textLength="136" x="110" y="633.6239">txtWeight: TextView</text><rect fill="none" height="6" style="stroke:#C82930;stroke-width:1.0;" width="6" x="98" y="643.5741"/><text fill="#000000" font-family="sans-serif" font-size="14" lengthAdjust="spacing" textLength="133" x="110" y="649.9207">txtHeight: TextView</text><rect fill="none" height="6" style="stroke:#C82930;stroke-width:1.0;" width="6" x="98" y="659.8709"/><text fill="#000000" font-family="sans-serif" font-size="14" lengthAdjust="spacing" textLength="161" x="110" y="666.2176">txtDayOfBirth: TextView</text><rect fill="none" height="6" style="stroke:#C82930;stroke-width:1.0;" width="6" x="98" y="676.1678"/><text fill="#000000" font-family="sans-serif" font-size="14" lengthAdjust="spacing" textLength="150" x="110" y="682.5145">txtCategory: TextView</text><rect fill="none" height="6" style="stroke:#C82930;stroke-width:1.0;" width="6" x="98" y="692.4647"/><text fill="#000000" font-family="sans-serif" font-size="14" lengthAdjust="spacing" textLength="174" x="110" y="698.8114">btnSaveChanges: Button</text><rect fill="none" height="6" style="stroke:#C82930;stroke-width:1.0;" width="6" x="98" y="708.7616"/><text fill="#000000" font-family="sans-serif" font-size="14" lengthAdjust="spacing" textLength="111" x="110" y="715.1082">btnStart: Button</text><rect fill="none" height="6" style="stroke:#C82930;stroke-width:1.0;" width="6" x="98" y="725.0584"/><text fill="#000000" font-family="sans-serif" font-size="14" lengthAdjust="spacing" textLength="113" x="110" y="731.4051">btnBack: Button</text><rect fill="none" height="6" style="stroke:#C82930;stroke-width:1.0;" width="6" x="98" y="741.3553"/><text fill="#000000" font-family="sans-serif" font-size="14" lengthAdjust="spacing" textLength="265" x="110" y="747.702">checkBox_show_password: CheckBox</text><rect fill="none" height="6" style="stroke:#C82930;stroke-width:1.0;" width="6" x="98" y="757.6522"/><text fill="#000000" font-family="sans-serif" font-size="14" lengthAdjust="spacing" textLength="72" x="110" y="763.9989">user: User</text><rect fill="none" height="6" style="stroke:#C82930;stroke-width:1.0;" width="6" x="98" y="773.9491"/><text fill="#000000" font-family="sans-serif" font-size="14" lengthAdjust="spacing" textLength="200" x="110" y="780.2957">userControler: UserControler</text><rect fill="none" height="6" style="stroke:#C82930;stroke-width:1.0;" width="6" x="98" y="790.2459"/><text fill="#000000" font-family="sans-serif" font-size="14" lengthAdjust="spacing" textLength="89" x="110" y="796.5926">intent: Intent</text><rect fill="none" height="6" style="stroke:#C82930;stroke-width:1.0;" width="6" x="98" y="806.5428"/><text fill="#000000" font-family="sans-serif" font-size="14" lengthAdjust="spacing" textLength="154" x="110" y="812.8895">originalValues: String[]</text><rect fill="none" height="6" style="stroke:#C82930;stroke-width:1.0;" width="6" x="98" y="822.8397"/><text fill="#000000" font-family="sans-serif" font-size="14" lengthAdjust="spacing" textLength="157" x="110" y="829.1864">sdf: SimpleDateFormat</text><rect fill="none" height="6" style="stroke:#C82930;stroke-width:1.0;" width="6" x="98" y="839.1366"/><text fill="#000000" font-family="sans-serif" font-size="14" lengthAdjust="spacing" textLength="217" x="110" y="845.4832">dialogWindows: DialogWindows</text><rect fill="none" height="6" style="stroke:#C82930;stroke-width:1.0;" width="6" x="98" y="855.4334"/><text fill="#000000" font-family="sans-serif" font-size="14" lengthAdjust="spacing" textLength="102" x="110" y="861.7801">userRol: String</text><rect fill="none" height="6" style="stroke:#C82930;stroke-width:1.0;" width="6" x="98" y="871.7303"/><text fill="#000000" font-family="sans-serif" font-size="14" lengthAdjust="spacing" textLength="151" x="110" y="878.077">userApiService: String</text><line style="stroke:#181818;stroke-width:0.5;" x1="91" x2="380" y1="885.3788" y2="885.3788"/><ellipse cx="101" cy="899.0272" fill="#84BE84" rx="3" ry="3" style="stroke:#038048;stroke-width:1.0;"/><text fill="#000000" font-family="sans-serif" font-size="14" lengthAdjust="spacing" textLength="123" x="110" y="902.3739">onResume(): void</text><ellipse cx="101" cy="915.3241" fill="#84BE84" rx="3" ry="3" style="stroke:#038048;stroke-width:1.0;"/><text fill="#000000" font-family="sans-serif" font-size="14" lengthAdjust="spacing" textLength="141" x="110" y="918.6707">initializeViews(): void</text><ellipse cx="101" cy="931.6209" fill="#84BE84" rx="3" ry="3" style="stroke:#038048;stroke-width:1.0;"/><text fill="#000000" font-family="sans-serif" font-size="14" lengthAdjust="spacing" textLength="117" x="110" y="934.9676">hideFields(): void</text><ellipse cx="101" cy="947.9178" fill="#84BE84" rx="3" ry="3" style="stroke:#038048;stroke-width:1.0;"/><text fill="#000000" font-family="sans-serif" font-size="14" lengthAdjust="spacing" textLength="194" x="110" y="951.2645">hideFieldsEntrenador(): void</text><ellipse cx="101" cy="964.2147" fill="#84BE84" rx="3" ry="3" style="stroke:#038048;stroke-width:1.0;"/><text fill="#000000" font-family="sans-serif" font-size="14" lengthAdjust="spacing" textLength="172" x="110" y="967.5614">fillFields(user: User): void</text><ellipse cx="101" cy="980.5116" fill="#84BE84" rx="3" ry="3" style="stroke:#038048;stroke-width:1.0;"/><text fill="#000000" font-family="sans-serif" font-size="14" lengthAdjust="spacing" textLength="106" x="110" y="983.8582">listeners(): void</text><ellipse cx="101" cy="996.8084" fill="#84BE84" rx="3" ry="3" style="stroke:#038048;stroke-width:1.0;"/><text fill="#000000" font-family="sans-serif" font-size="14" lengthAdjust="spacing" textLength="145" x="110" y="1000.1551">onClick(v: View): void</text><ellipse cx="101" cy="1013.1053" fill="#84BE84" rx="3" ry="3" style="stroke:#038048;stroke-width:1.0;"/><text fill="#000000" font-family="sans-serif" font-size="14" lengthAdjust="spacing" textLength="248" x="110" y="1016.452">saveOriginalValues(user: User): void</text><ellipse cx="101" cy="1029.4022" fill="#84BE84" rx="3" ry="3" style="stroke:#038048;stroke-width:1.0;"/><text fill="#000000" font-family="sans-serif" font-size="14" lengthAdjust="spacing" textLength="239" x="110" y="1032.7489">getEditTextValue(index: int): String</text><ellipse cx="101" cy="1045.6991" fill="#84BE84" rx="3" ry="3" style="stroke:#038048;stroke-width:1.0;"/><text fill="#000000" font-family="sans-serif" font-size="14" lengthAdjust="spacing" textLength="194" x="110" y="1049.0457">anyFieldChanged(): boolean</text></g><g id="elem_GMN10"><path d="M461,673.47 L461,735 L381.47,739 L461,743 L461,804.5325 A0,0 0 0 0 461,804.5325 L907,804.5325 A0,0 0 0 0 907,804.5325 L907,683.47 L897,673.47 L461,673.47 A0,0 0 0 0 461,673.47 " fill="#FEFFDD" style="stroke:#181818;stroke-width:0.5;"/><path d="M897,673.47 L897,683.47 L907,683.47 L897,673.47 " fill="#FEFFDD" style="stroke:#181818;stroke-width:0.5;"/><text fill="#000000" font-family="sans-serif" font-size="13" lengthAdjust="spacing" textLength="373" x="467" y="690.5369">Esta actividad permite editar la informaci&#243;n de un usuario.</text><text fill="#000000" font-family="sans-serif" font-size="13" lengthAdjust="spacing" textLength="206" x="467" y="705.6697">Dependiendo del rol del usuario,</text><text fill="#000000" font-family="sans-serif" font-size="13" lengthAdjust="spacing" textLength="241" x="467" y="720.8025">ciertos campos pueden estar ocultos.</text><text fill="#000000" font-family="sans-serif" font-size="13" lengthAdjust="spacing" textLength="344" x="467" y="735.9353">Los cambios en la informaci&#243;n del usuario se guardan</text><text fill="#000000" font-family="sans-serif" font-size="13" lengthAdjust="spacing" textLength="295" x="467" y="751.0681">y se actualizan en la base de datos cuando se</text><text fill="#000000" font-family="sans-serif" font-size="13" lengthAdjust="spacing" textLength="425" x="467" y="766.201">presiona el bot&#243;n de guardar cambios. Se muestra un mensaje de</text><text fill="#000000" font-family="sans-serif" font-size="13" lengthAdjust="spacing" textLength="358" x="467" y="781.3338">confirmaci&#243;n antes de guardar los cambios. Tambi&#233;n se</text><text fill="#000000" font-family="sans-serif" font-size="13" lengthAdjust="spacing" textLength="422" x="467" y="796.4666">proporciona la funcionalidad para mostrar u ocultar la contrase&#241;a.</text></g><!--class ListUserActivity--><g id="elem_ListUserActivity"><rect codeLine="108" fill="#F1F1F1" height="259.8594" id="ListUserActivity" rx="2.5" ry="2.5" style="stroke:#181818;stroke-width:0.5;" width="249" x="111" y="127.07"/><ellipse cx="180.25" cy="143.07" fill="#ADD1B2" rx="11" ry="11" style="stroke:#181818;stroke-width:1.0;"/><path d="M183.2188,148.7106 Q182.6406,149.0075 182,149.1481 Q181.3594,149.3044 180.6563,149.3044 Q178.1563,149.3044 176.8281,147.6637 Q175.5156,146.0075 175.5156,142.8825 Q175.5156,139.7575 176.8281,138.1012 Q178.1563,136.445 180.6563,136.445 Q181.3594,136.445 182,136.6012 Q182.6563,136.7575 183.2188,137.0544 L183.2188,139.7731 Q182.5938,139.195 182,138.9294 Q181.4063,138.6481 180.7813,138.6481 Q179.4375,138.6481 178.75,139.7262 Q178.0625,140.7887 178.0625,142.8825 Q178.0625,144.9762 178.75,146.0544 Q179.4375,147.1169 180.7813,147.1169 Q181.4063,147.1169 182,146.8512 Q182.5938,146.57 183.2188,145.9919 L183.2188,148.7106 Z " fill="#000000"/><text fill="#000000" font-family="sans-serif" font-size="14" lengthAdjust="spacing" textLength="102" x="200.75" y="147.9167">ListUserActivity</text><line style="stroke:#181818;stroke-width:0.5;" x1="112" x2="359" y1="159.07" y2="159.07"/><rect fill="none" height="6" style="stroke:#C82930;stroke-width:1.0;" width="6" x="119" y="169.7184"/><text fill="#000000" font-family="sans-serif" font-size="14" lengthAdjust="spacing" textLength="117" x="131" y="176.0651">txtTitle: TextView</text><rect fill="none" height="6" style="stroke:#C82930;stroke-width:1.0;" width="6" x="119" y="186.0153"/><text fill="#000000" font-family="sans-serif" font-size="14" lengthAdjust="spacing" textLength="186" x="131" y="192.362">recyclerView: RecyclerView</text><rect fill="none" height="6" style="stroke:#C82930;stroke-width:1.0;" width="6" x="119" y="202.3122"/><text fill="#000000" font-family="sans-serif" font-size="14" lengthAdjust="spacing" textLength="200" x="131" y="208.6589">userControler: UserControler</text><rect fill="none" height="6" style="stroke:#C82930;stroke-width:1.0;" width="6" x="119" y="218.6091"/><text fill="#000000" font-family="sans-serif" font-size="14" lengthAdjust="spacing" textLength="157" x="131" y="224.9557">btnCreateUser: Button</text><rect fill="none" height="6" style="stroke:#C82930;stroke-width:1.0;" width="6" x="119" y="234.9059"/><text fill="#000000" font-family="sans-serif" font-size="14" lengthAdjust="spacing" textLength="113" x="131" y="241.2526">btnBack: Button</text><rect fill="none" height="6" style="stroke:#C82930;stroke-width:1.0;" width="6" x="119" y="251.2028"/><text fill="#000000" font-family="sans-serif" font-size="14" lengthAdjust="spacing" textLength="112" x="131" y="257.5495">userLogedId: int</text><rect fill="none" height="6" style="stroke:#C82930;stroke-width:1.0;" width="6" x="119" y="267.4997"/><text fill="#000000" font-family="sans-serif" font-size="14" lengthAdjust="spacing" textLength="86" x="131" y="273.8464">route: String</text><rect fill="none" height="6" style="stroke:#C82930;stroke-width:1.0;" width="6" x="119" y="283.7966"/><text fill="#000000" font-family="sans-serif" font-size="14" lengthAdjust="spacing" textLength="102" x="131" y="290.1432">userRol: String</text><rect fill="none" height="6" style="stroke:#C82930;stroke-width:1.0;" width="6" x="119" y="300.0934"/><text fill="#000000" font-family="sans-serif" font-size="14" lengthAdjust="spacing" textLength="223" x="131" y="306.4401">listUserAdapter: ListUserAdapter</text><line style="stroke:#181818;stroke-width:0.5;" x1="112" x2="359" y1="313.7419" y2="313.7419"/><ellipse cx="122" cy="327.3903" fill="#84BE84" rx="3" ry="3" style="stroke:#038048;stroke-width:1.0;"/><text fill="#000000" font-family="sans-serif" font-size="14" lengthAdjust="spacing" textLength="123" x="131" y="330.737">onResume(): void</text><ellipse cx="122" cy="343.6872" fill="#84BE84" rx="3" ry="3" style="stroke:#038048;stroke-width:1.0;"/><text fill="#000000" font-family="sans-serif" font-size="14" lengthAdjust="spacing" textLength="106" x="131" y="347.0339">listeners(): void</text><ellipse cx="122" cy="359.9841" fill="#84BE84" rx="3" ry="3" style="stroke:#038048;stroke-width:1.0;"/><text fill="#000000" font-family="sans-serif" font-size="14" lengthAdjust="spacing" textLength="145" x="131" y="363.3307">onClick(v: View): void</text><ellipse cx="122" cy="376.2809" fill="#84BE84" rx="3" ry="3" style="stroke:#038048;stroke-width:1.0;"/><text fill="#000000" font-family="sans-serif" font-size="14" lengthAdjust="spacing" textLength="193" x="131" y="379.6276">setHeader(title: String): void</text></g><g id="elem_GMN14"><path d="M501.5,214.17 L501.5,253 L360.28,257 L501.5,261 L501.5,299.8341 A0,0 0 0 0 501.5,299.8341 L866.5,299.8341 A0,0 0 0 0 866.5,299.8341 L866.5,224.17 L856.5,214.17 L501.5,214.17 A0,0 0 0 0 501.5,214.17 " fill="#FEFFDD" style="stroke:#181818;stroke-width:0.5;"/><path d="M856.5,214.17 L856.5,224.17 L866.5,224.17 L856.5,214.17 " fill="#FEFFDD" style="stroke:#181818;stroke-width:0.5;"/><text fill="#000000" font-family="sans-serif" font-size="13" lengthAdjust="spacing" textLength="294" x="507.5" y="231.2369">Esta actividad muestra una lista de usuarios y</text><text fill="#000000" font-family="sans-serif" font-size="13" lengthAdjust="spacing" textLength="199" x="507.5" y="246.3697">permite crear nuevos usuarios.</text><text fill="#000000" font-family="sans-serif" font-size="13" lengthAdjust="spacing" textLength="206" x="507.5" y="261.5025">Dependiendo del rol del usuario,</text><text fill="#000000" font-family="sans-serif" font-size="13" lengthAdjust="spacing" textLength="340" x="507.5" y="276.6353">se muestran botones para editar o eliminar usuarios.</text><text fill="#000000" font-family="sans-serif" font-size="13" lengthAdjust="spacing" textLength="297" x="507.5" y="291.7681">Tambi&#233;n permite volver a la actividad anterior.</text></g><!--SRC=[xLVDRXit4BxxAOYS5DJL0-WMomvYm4q0sqaEHH6CbhCIQowv8BcorI0FqsEEHM-zwiNoaRlIhhGhHMw10WLgmDPgPpX_dFc-iUOyY625K_D5458vpeAovkpihAJiWUOiNloqckfgDlwW-D6FttjsBpwVdGdyP9gy5rF753Y-VuMZInLMudCInvyVHGN1Mofu8gwa2lVy53h2N3aVxYfd3YbupgoHnpGoE9zRjneKbWjh-6rLpDWDohaWfGSbZnmBCYXQ71P9MhtBBvGBY-5mKAz7w-IWC3o5ZutbA8dbtfM-EIgzxBWUrfXkApKWpxQtUA-2va6TMJ1tjEJfWioS_KHSL26WLNOL0hamBBf0Gmr8iWLd3nVswPDVsCTFJOacOjgytckbMulxkWjEcNbVygfK0q9b0Xl4T9q-kxUbIDlvHsMaVKGwbzslUyQdrWHdjOvzzBxzpgxRgpA7TrMKcYzHozVM5TIw-q5OKu_AoAE8yjhuG2PZ52nmB8kHcbzEnD8gsJcaZ0g8I_t6QVv6VOqiNSSR9ibkr2z4_u1M7eLWDsJCSuZfHSdC8Zyo7U52INwjM4j_aX_agrNsC5fEH8ozhp1ldSNF9FbIGuknWHjCihde8T2u3pfRkrUegw3qLf8K9Rj2mHW9RJtkiYAdy13xtOcgJSzKlBHHErTQi14QHah4JvbQ_sd6uf9BDbBXrsxFIDOYgDBYOMFv72KKXVN1aLl_Rj1ZEJkq7RSTbL5H8WBumF4SNLBfU78ixbYK5Ki8wkZgO3eduQP1wANrvx0GO9gaTUp5IX3cDf0VYokzYQQsjpsFQu8gB2iJ_TQfHJVU6j8YiuL5vOkPutCapreh2JzjYTP_5UnIje7r-cjk3VBDh7DiaGlYSh2dChmisUClwL0vQWtaZ6QDnmrS5wWbY6S50yY3FA__e75IHOrJ0npb8B53GX5F_wUW_pO5_Olq8W_oImUAUkX_3FmFaem5YYbCrmVILSogHikVVpcPE9x5KuVf4L1znswfCkufHAY-PLyLFFex1DIXXMF2gorQ3QW1vtI7MkewFu-wlaitaNRVxTp6KLzWfys89EqH2ivFatZJBmTAI6QL4gZRL-upw8cyjezZtsCrXZxm76Ir0-cHZyo61CPR8nqEIzo59awV6-vgAKgn2v4bQwfgM8bzz6MpIaFMMhsf5MUg9hL-B2qTWHldU9ATjM8LNoAnAlOOcSR237oGw8vI61N5a7tBP2Lu3F-cKAJGcGrDphLjjuacCMg1UmQzn7eKR3pz6kssYLe30jY4If6dkuPqczfOtCU7zLUp6uSjhSjIA0WxhqnwrlKb4Vmsku2ewiBLbtMOylIX_yTEfi8RpCX1AWG67zxluMkL0TRYwucuxNnxFXu2aDiTxLc07HtSM8pGjKp3rWtGLe4Fh_y34hqfXgGon41kTb-SXe7_37OuDCjvg2lVtvTF18Vzcpq43ctBKmgTEljfN1JRxcrGf5utqmRShiXZSJ9kj9f-Et0cpYLM7r-FGGDKSK_4vcVYGFJzR2Ti4zZIwYKxaMQhpI-EAKww_MtnopS0]--></g></svg>